<?xml version="1.0" encoding="UTF-8"?>
<svg width="459px" height="177px" viewBox="0 0 459 177" version="1.1" xmlns="http://www.w3.org/2000/svg" xmlns:xlink="http://www.w3.org/1999/xlink">
    <title>Combined-Shape</title>
    <g id="Page-1" stroke="none" stroke-width="1" fill="none" fill-rule="evenodd">
        <path d="M374.4525,147.074 C375.7645,147.074 377.042333,147.361 378.286,147.935 C379.529667,148.509 380.506833,149.315333 381.2175,150.354 L381.2995,150.354 L381.2995,147.566 L384.9895,147.566 L384.9895,166.836 C384.9895,168.312 384.736667,169.658167 384.231,170.8745 C383.725333,172.090833 383.007833,173.143167 382.0785,174.0315 C381.149167,174.919833 380.0285,175.61 378.7165,176.102 C377.4045,176.594 375.955833,176.84 374.3705,176.84 C372.511833,176.84 370.810333,176.580333 369.266,176.061 C367.721667,175.541667 366.2525,174.639667 364.8585,173.355 L367.3595,170.239 C368.316167,171.277667 369.354833,172.0635 370.4755,172.5965 C371.596167,173.1295 372.867167,173.396 374.2885,173.396 C375.655167,173.396 376.7895,173.197833 377.6915,172.8015 C378.5935,172.405167 379.311,171.892667 379.844,171.264 C380.377,170.635333 380.752833,169.917833 380.9715,169.1115 C381.190167,168.305167 381.2995,167.492 381.2995,166.672 L381.2995,163.802 L381.1765,163.802 C380.465833,164.977333 379.502333,165.845167 378.286,166.4055 C377.069667,166.965833 375.791833,167.246 374.4525,167.246 C373.031167,167.246 371.712333,166.993167 370.496,166.4875 C369.279667,165.981833 368.234167,165.284833 367.3595,164.3965 C366.484833,163.508167 365.8015,162.455833 365.3095,161.2395 C364.8175,160.023167 364.5715,158.704333 364.5715,157.283 C364.5715,155.861667 364.803833,154.529167 365.2685,153.2855 C365.733167,152.041833 366.396,150.955333 367.257,150.026 C368.118,149.096667 369.156667,148.372333 370.373,147.853 C371.589333,147.333667 372.949167,147.074 374.4525,147.074 Z M205.5255,162.326 L202.0815,172.412 L198.7195,172.412 L201.5485,162.326 L205.5255,162.326 Z M115.199,147.074 C116.921,147.074 118.3765,147.374667 119.5655,147.976 C120.7545,148.577333 121.731667,149.363167 122.497,150.3335 C123.262333,151.303833 123.815833,152.397167 124.1575,153.6135 C124.499167,154.829833 124.67,156.066667 124.67,157.324 L124.67,158.636 L109.09,158.636 C109.09,159.483333 109.2745,160.2555 109.6435,160.9525 C110.0125,161.6495 110.497667,162.244 111.099,162.736 C111.700333,163.228 112.397333,163.610667 113.19,163.884 C113.982667,164.157333 114.802667,164.294 115.65,164.294 C116.798,164.294 117.795667,164.0275 118.643,163.4945 C119.490333,162.9615 120.269333,162.257667 120.98,161.383 L123.768,163.515 C121.718,166.166333 118.848,167.492 115.158,167.492 C113.627333,167.492 112.240167,167.232333 110.9965,166.713 C109.752833,166.193667 108.7005,165.476167 107.8395,164.5605 C106.9785,163.644833 106.315667,162.565167 105.851,161.3215 C105.386333,160.077833 105.154,158.731667 105.154,157.283 C105.154,155.834333 105.406833,154.488167 105.9125,153.2445 C106.418167,152.000833 107.115167,150.921167 108.0035,150.0055 C108.891833,149.089833 109.951,148.372333 111.181,147.853 C112.411,147.333667 113.750333,147.074 115.199,147.074 Z M151.756,142.113 L151.756,147.566 L157.045,147.566 L157.045,150.764 L151.756,150.764 L151.756,159.579 C151.756,160.125667 151.769667,160.6655 151.797,161.1985 C151.824333,161.7315 151.926833,162.209833 152.1045,162.6335 C152.282167,163.057167 152.5555,163.398833 152.9245,163.6585 C153.2935,163.918167 153.833333,164.048 154.544,164.048 C154.981333,164.048 155.432333,164.007 155.897,163.925 C156.361667,163.843 156.785333,163.692667 157.168,163.474 L157.168,166.836 C156.730667,167.082 156.1635,167.252833 155.4665,167.3485 C154.7695,167.444167 154.229667,167.492 153.847,167.492 C152.425667,167.492 151.3255,167.293833 150.5465,166.8975 C149.7675,166.501167 149.1935,165.988667 148.8245,165.36 C148.4555,164.731333 148.236833,164.0275 148.1685,163.2485 C148.100167,162.4695 148.066,161.683667 148.066,160.891 L148.066,150.764 L143.802,150.764 L143.802,147.566 L148.066,147.566 L148.066,142.113 L151.756,142.113 Z M135.4045,142.113 L135.4045,147.566 L140.6935,147.566 L140.6935,150.764 L135.4045,150.764 L135.4045,159.579 C135.4045,160.125667 135.418167,160.6655 135.4455,161.1985 C135.472833,161.7315 135.575333,162.209833 135.753,162.6335 C135.930667,163.057167 136.204,163.398833 136.573,163.6585 C136.942,163.918167 137.481833,164.048 138.1925,164.048 C138.629833,164.048 139.080833,164.007 139.5455,163.925 C140.010167,163.843 140.433833,163.692667 140.8165,163.474 L140.8165,166.836 C140.379167,167.082 139.812,167.252833 139.115,167.3485 C138.418,167.444167 137.878167,167.492 137.4955,167.492 C136.074167,167.492 134.974,167.293833 134.195,166.8975 C133.416,166.501167 132.842,165.988667 132.473,165.36 C132.104,164.731333 131.885333,164.0275 131.817,163.2485 C131.748667,162.4695 131.7145,161.683667 131.7145,160.891 L131.7145,150.764 L127.4505,150.764 L127.4505,147.566 L131.7145,147.566 L131.7145,142.113 L135.4045,142.113 Z M325.3905,147.074 C326.839167,147.074 328.192167,147.3405 329.4495,147.8735 C330.706833,148.4065 331.800167,149.137667 332.7295,150.067 C333.658833,150.996333 334.39,152.076 334.923,153.306 C335.456,154.536 335.7225,155.861667 335.7225,157.283 C335.7225,158.704333 335.456,160.036833 334.923,161.2805 C334.39,162.524167 333.658833,163.603833 332.7295,164.5195 C331.800167,165.435167 330.706833,166.1595 329.4495,166.6925 C328.192167,167.2255 326.839167,167.492 325.3905,167.492 C323.941833,167.492 322.588833,167.2255 321.3315,166.6925 C320.074167,166.1595 318.980833,165.435167 318.0515,164.5195 C317.122167,163.603833 316.391,162.524167 315.858,161.2805 C315.325,160.036833 315.0585,158.704333 315.0585,157.283 C315.0585,155.861667 315.325,154.536 315.858,153.306 C316.391,152.076 317.122167,150.996333 318.0515,150.067 C318.980833,149.137667 320.074167,148.4065 321.3315,147.8735 C322.588833,147.3405 323.941833,147.074 325.3905,147.074 Z M277.32,147.074 C279.042,147.074 280.4975,147.374667 281.6865,147.976 C282.8755,148.577333 283.852667,149.363167 284.618,150.3335 C285.383333,151.303833 285.936833,152.397167 286.2785,153.6135 C286.620167,154.829833 286.791,156.066667 286.791,157.324 L286.791,158.636 L271.211,158.636 C271.211,159.483333 271.3955,160.2555 271.7645,160.9525 C272.1335,161.6495 272.618667,162.244 273.22,162.736 C273.821333,163.228 274.518333,163.610667 275.311,163.884 C276.103667,164.157333 276.923667,164.294 277.771,164.294 C278.919,164.294 279.916667,164.0275 280.764,163.4945 C281.611333,162.9615 282.390333,162.257667 283.101,161.383 L285.889,163.515 C283.839,166.166333 280.969,167.492 277.279,167.492 C275.748333,167.492 274.361167,167.232333 273.1175,166.713 C271.873833,166.193667 270.8215,165.476167 269.9605,164.5605 C269.0995,163.644833 268.436667,162.565167 267.972,161.3215 C267.507333,160.077833 267.275,158.731667 267.275,157.283 C267.275,155.834333 267.527833,154.488167 268.0335,153.2445 C268.539167,152.000833 269.236167,150.921167 270.1245,150.0055 C271.012833,149.089833 272.072,148.372333 273.302,147.853 C274.532,147.333667 275.871333,147.074 277.32,147.074 Z M52.4095,147.074 C54.1315,147.074 55.587,147.374667 56.776,147.976 C57.965,148.577333 58.9421667,149.363167 59.7075,150.3335 C60.4728333,151.303833 61.0263333,152.397167 61.368,153.6135 C61.7096667,154.829833 61.8805,156.066667 61.8805,157.324 L61.8805,158.636 L46.3005,158.636 C46.3005,159.483333 46.485,160.2555 46.854,160.9525 C47.223,161.6495 47.7081667,162.244 48.3095,162.736 C48.9108333,163.228 49.6078333,163.610667 50.4005,163.884 C51.1931667,164.157333 52.0131667,164.294 52.8605,164.294 C54.0085,164.294 55.0061667,164.0275 55.8535,163.4945 C56.7008333,162.9615 57.4798333,162.257667 58.1905,161.383 L60.9785,163.515 C58.9285,166.166333 56.0585,167.492 52.3685,167.492 C50.8378333,167.492 49.4506667,167.232333 48.207,166.713 C46.9633333,166.193667 45.911,165.476167 45.05,164.5605 C44.189,163.644833 43.5261667,162.565167 43.0615,161.3215 C42.5968333,160.077833 42.3645,158.731667 42.3645,157.283 C42.3645,155.834333 42.6173333,154.488167 43.123,153.2445 C43.6286667,152.000833 44.3256667,150.921167 45.214,150.0055 C46.1023333,149.089833 47.1615,148.372333 48.3915,147.853 C49.6215,147.333667 50.9608333,147.074 52.4095,147.074 Z M83.7595,136.004 L83.7595,150.354 L83.8415,150.354 C84.4975,149.342667 85.4405,148.543167 86.6705,147.9555 C87.9005,147.367833 89.2125,147.074 90.6065,147.074 C92.1098333,147.074 93.4696667,147.333667 94.686,147.853 C95.9023333,148.372333 96.941,149.089833 97.802,150.0055 C98.663,150.921167 99.3258333,152.000833 99.7905,153.2445 C100.255167,154.488167 100.4875,155.834333 100.4875,157.283 C100.4875,158.731667 100.255167,160.071 99.7905,161.301 C99.3258333,162.531 98.663,163.610667 97.802,164.54 C96.941,165.469333 95.9023333,166.193667 94.686,166.713 C93.4696667,167.232333 92.1098333,167.492 90.6065,167.492 C89.2945,167.492 88.0166667,167.205 86.773,166.631 C85.5293333,166.057 84.5521667,165.250667 83.8415,164.212 L83.7595,164.212 L83.7595,167 L80.0695,167 L80.0695,136.004 L83.7595,136.004 Z M171.8795,147.074 C173.6015,147.074 175.057,147.374667 176.246,147.976 C177.435,148.577333 178.412167,149.363167 179.1775,150.3335 C179.942833,151.303833 180.496333,152.397167 180.838,153.6135 C181.179667,154.829833 181.3505,156.066667 181.3505,157.324 L181.3505,158.636 L165.7705,158.636 C165.7705,159.483333 165.955,160.2555 166.324,160.9525 C166.693,161.6495 167.178167,162.244 167.7795,162.736 C168.380833,163.228 169.077833,163.610667 169.8705,163.884 C170.663167,164.157333 171.483167,164.294 172.3305,164.294 C173.4785,164.294 174.476167,164.0275 175.3235,163.4945 C176.170833,162.9615 176.949833,162.257667 177.6605,161.383 L180.4485,163.515 C178.3985,166.166333 175.5285,167.492 171.8385,167.492 C170.307833,167.492 168.920667,167.232333 167.677,166.713 C166.433333,166.193667 165.381,165.476167 164.52,164.5605 C163.659,163.644833 162.996167,162.565167 162.5315,161.3215 C162.066833,160.077833 161.8345,158.731667 161.8345,157.283 C161.8345,155.834333 162.087333,154.488167 162.593,153.2445 C163.098667,152.000833 163.795667,150.921167 164.684,150.0055 C165.572333,149.089833 166.6315,148.372333 167.8615,147.853 C169.0915,147.333667 170.430833,147.074 171.8795,147.074 Z M400.644,147.074 C402.366,147.074 403.8215,147.374667 405.0105,147.976 C406.1995,148.577333 407.176667,149.363167 407.942,150.3335 C408.707333,151.303833 409.260833,152.397167 409.6025,153.6135 C409.944167,154.829833 410.115,156.066667 410.115,157.324 L410.115,158.636 L394.535,158.636 C394.535,159.483333 394.7195,160.2555 395.0885,160.9525 C395.4575,161.6495 395.942667,162.244 396.544,162.736 C397.145333,163.228 397.842333,163.610667 398.635,163.884 C399.427667,164.157333 400.247667,164.294 401.095,164.294 C402.243,164.294 403.240667,164.0275 404.088,163.4945 C404.935333,162.9615 405.714333,162.257667 406.425,161.383 L409.213,163.515 C407.163,166.166333 404.293,167.492 400.603,167.492 C399.072333,167.492 397.685167,167.232333 396.4415,166.713 C395.197833,166.193667 394.1455,165.476167 393.2845,164.5605 C392.4235,163.644833 391.760667,162.565167 391.296,161.3215 C390.831333,160.077833 390.599,158.731667 390.599,157.283 C390.599,155.834333 390.851833,154.488167 391.3575,153.2445 C391.863167,152.000833 392.560167,150.921167 393.4485,150.0055 C394.336833,149.089833 395.396,148.372333 396.626,147.853 C397.856,147.333667 399.195333,147.074 400.644,147.074 Z M425.3185,147.074 C425.919833,147.074 426.4665,147.156 426.9585,147.32 L426.7945,151.297 C426.493833,151.215 426.193167,151.146667 425.8925,151.092 C425.591833,151.037333 425.291167,151.01 424.9905,151.01 C423.1865,151.01 421.806167,151.515667 420.8495,152.527 C419.892833,153.538333 419.4145,155.11 419.4145,157.242 L419.4145,167 L415.7245,167 L415.7245,147.566 L419.4145,147.566 L419.4145,150.559 L419.4965,150.559 C419.7425,150.039667 420.0705,149.568167 420.4805,149.1445 C420.8905,148.720833 421.348333,148.358667 421.854,148.058 C422.359667,147.757333 422.913167,147.518167 423.5145,147.3405 C424.115833,147.162833 424.717167,147.074 425.3185,147.074 Z M351.705,147.074 C352.634333,147.074 353.5295,147.2175 354.3905,147.5045 C355.2515,147.7915 356.003167,148.235667 356.6455,148.837 C357.287833,149.438333 357.800333,150.2105 358.183,151.1535 C358.565667,152.0965 358.757,153.210333 358.757,154.495 L358.757,167 L355.067,167 L355.067,155.52 C355.067,154.618 354.944,153.845833 354.698,153.2035 C354.452,152.561167 354.124,152.041833 353.714,151.6455 C353.304,151.249167 352.8325,150.962167 352.2995,150.7845 C351.7665,150.606833 351.213,150.518 350.639,150.518 C349.873667,150.518 349.163,150.641 348.507,150.887 C347.851,151.133 347.277,151.5225 346.785,152.0555 C346.293,152.5885 345.910333,153.265 345.637,154.085 C345.363667,154.905 345.227,155.875333 345.227,156.996 L345.227,167 L341.537,167 L341.537,147.566 L345.227,147.566 L345.227,150.559 L345.309,150.559 C345.773667,149.520333 346.58,148.679833 347.728,148.0375 C348.876,147.395167 350.201667,147.074 351.705,147.074 Z M196.554,147.074 C197.155333,147.074 197.702,147.156 198.194,147.32 L198.03,151.297 C197.729333,151.215 197.428667,151.146667 197.128,151.092 C196.827333,151.037333 196.526667,151.01 196.226,151.01 C194.422,151.01 193.041667,151.515667 192.085,152.527 C191.128333,153.538333 190.65,155.11 190.65,157.242 L190.65,167 L186.96,167 L186.96,147.566 L190.65,147.566 L190.65,150.559 L190.732,150.559 C190.978,150.039667 191.306,149.568167 191.716,149.1445 C192.126,148.720833 192.583833,148.358667 193.0895,148.058 C193.595167,147.757333 194.148667,147.518167 194.75,147.3405 C195.351333,147.162833 195.952667,147.074 196.554,147.074 Z M308.957,136.004 L308.957,167 L305.267,167 L305.267,136.004 L308.957,136.004 Z M3.765,136.004 L3.765,167 L0.075,167 L0.075,136.004 L3.765,136.004 Z M14.7865,147.566 L14.7865,167 L11.0965,167 L11.0965,147.566 L14.7865,147.566 Z M248.6685,147.566 L254.4905,162.449 L260.0665,147.566 L264.0025,147.566 L256.3765,167 L252.3175,167 L244.4045,147.566 L248.6685,147.566 Z M23.758,147.566 L29.58,162.449 L35.156,147.566 L39.092,147.566 L31.466,167 L27.407,167 L19.494,147.566 L23.758,147.566 Z M239.697,147.566 L239.697,167 L236.007,167 L236.007,147.566 L239.697,147.566 Z M228.6755,136.004 L228.6755,167 L224.9855,167 L224.9855,136.004 L228.6755,136.004 Z M325.3905,150.518 C324.4065,150.518 323.518167,150.688833 322.7255,151.0305 C321.932833,151.372167 321.263167,151.836833 320.7165,152.4245 C320.169833,153.012167 319.746167,153.722833 319.4455,154.5565 C319.144833,155.390167 318.9945,156.299 318.9945,157.283 C318.9945,158.267 319.144833,159.175833 319.4455,160.0095 C319.746167,160.843167 320.169833,161.553833 320.7165,162.1415 C321.263167,162.729167 321.932833,163.193833 322.7255,163.5355 C323.518167,163.877167 324.4065,164.048 325.3905,164.048 C326.3745,164.048 327.262833,163.877167 328.0555,163.5355 C328.848167,163.193833 329.517833,162.729167 330.0645,162.1415 C330.611167,161.553833 331.034833,160.843167 331.3355,160.0095 C331.636167,159.175833 331.7865,158.267 331.7865,157.283 C331.7865,156.299 331.636167,155.390167 331.3355,154.5565 C331.034833,153.722833 330.611167,153.012167 330.0645,152.4245 C329.517833,151.836833 328.848167,151.372167 328.0555,151.0305 C327.262833,150.688833 326.3745,150.518 325.3905,150.518 Z M90.1555,150.518 C89.1715,150.518 88.2831667,150.688833 87.4905,151.0305 C86.6978333,151.372167 86.0281667,151.836833 85.4815,152.4245 C84.9348333,153.012167 84.5111667,153.722833 84.2105,154.5565 C83.9098333,155.390167 83.7595,156.299 83.7595,157.283 C83.7595,158.267 83.9098333,159.175833 84.2105,160.0095 C84.5111667,160.843167 84.9348333,161.553833 85.4815,162.1415 C86.0281667,162.729167 86.6978333,163.193833 87.4905,163.5355 C88.2831667,163.877167 89.1715,164.048 90.1555,164.048 C91.1395,164.048 92.0278333,163.877167 92.8205,163.5355 C93.6131667,163.193833 94.2828333,162.729167 94.8295,162.1415 C95.3761667,161.553833 95.7998333,160.843167 96.1005,160.0095 C96.4011667,159.175833 96.5515,158.267 96.5515,157.283 C96.5515,156.299 96.4011667,155.390167 96.1005,154.5565 C95.7998333,153.722833 95.3761667,153.012167 94.8295,152.4245 C94.2828333,151.836833 93.6131667,151.372167 92.8205,151.0305 C92.0278333,150.688833 91.1395,150.518 90.1555,150.518 Z M374.9035,150.518 C373.9195,150.518 373.031167,150.688833 372.2385,151.0305 C371.445833,151.372167 370.776167,151.836833 370.2295,152.4245 C369.682833,153.012167 369.259167,153.722833 368.9585,154.5565 C368.657833,155.390167 368.5075,156.299 368.5075,157.283 C368.5075,159.251 369.0815,160.8295 370.2295,162.0185 C371.3775,163.2075 372.9355,163.802 374.9035,163.802 C376.8715,163.802 378.4295,163.2075 379.5775,162.0185 C380.7255,160.8295 381.2995,159.251 381.2995,157.283 C381.2995,156.299 381.149167,155.390167 380.8485,154.5565 C380.547833,153.722833 380.124167,153.012167 379.5775,152.4245 C379.030833,151.836833 378.361167,151.372167 377.5685,151.0305 C376.775833,150.688833 375.8875,150.518 374.9035,150.518 Z M277.238,150.026 C276.336,150.026 275.509167,150.196833 274.7575,150.5385 C274.005833,150.880167 273.370333,151.324333 272.851,151.871 C272.331667,152.417667 271.9285,153.025833 271.6415,153.6955 C271.3545,154.365167 271.211,155.028 271.211,155.684 L282.855,155.684 C282.827667,154.864 282.697833,154.112333 282.4655,153.429 C282.233167,152.745667 281.884667,152.151167 281.42,151.6455 C280.955333,151.139833 280.3745,150.7435 279.6775,150.4565 C278.9805,150.1695 278.167333,150.026 277.238,150.026 Z M171.7975,150.026 C170.8955,150.026 170.068667,150.196833 169.317,150.5385 C168.565333,150.880167 167.929833,151.324333 167.4105,151.871 C166.891167,152.417667 166.488,153.025833 166.201,153.6955 C165.914,154.365167 165.7705,155.028 165.7705,155.684 L177.4145,155.684 C177.387167,154.864 177.257333,154.112333 177.025,153.429 C176.792667,152.745667 176.444167,152.151167 175.9795,151.6455 C175.514833,151.139833 174.934,150.7435 174.237,150.4565 C173.54,150.1695 172.726833,150.026 171.7975,150.026 Z M400.562,150.026 C399.66,150.026 398.833167,150.196833 398.0815,150.5385 C397.329833,150.880167 396.694333,151.324333 396.175,151.871 C395.655667,152.417667 395.2525,153.025833 394.9655,153.6955 C394.6785,154.365167 394.535,155.028 394.535,155.684 L406.179,155.684 C406.151667,154.864 406.021833,154.112333 405.7895,153.429 C405.557167,152.745667 405.208667,152.151167 404.744,151.6455 C404.279333,151.139833 403.6985,150.7435 403.0015,150.4565 C402.3045,150.1695 401.491333,150.026 400.562,150.026 Z M52.3275,150.026 C51.4255,150.026 50.5986667,150.196833 49.847,150.5385 C49.0953333,150.880167 48.4598333,151.324333 47.9405,151.871 C47.4211667,152.417667 47.018,153.025833 46.731,153.6955 C46.444,154.365167 46.3005,155.028 46.3005,155.684 L57.9445,155.684 C57.9171667,154.864 57.7873333,154.112333 57.555,153.429 C57.3226667,152.745667 56.9741667,152.151167 56.5095,151.6455 C56.0448333,151.139833 55.464,150.7435 54.767,150.4565 C54.07,150.1695 53.2568333,150.026 52.3275,150.026 Z M115.117,150.026 C114.215,150.026 113.388167,150.196833 112.6365,150.5385 C111.884833,150.880167 111.249333,151.324333 110.73,151.871 C110.210667,152.417667 109.8075,153.025833 109.5205,153.6955 C109.2335,154.365167 109.09,155.028 109.09,155.684 L120.734,155.684 C120.706667,154.864 120.576833,154.112333 120.3445,153.429 C120.112167,152.745667 119.763667,152.151167 119.299,151.6455 C118.834333,151.139833 118.2535,150.7435 117.5565,150.4565 C116.8595,150.1695 116.046333,150.026 115.117,150.026 Z M12.9415,137.89 C13.6795,137.89 14.315,138.1565 14.848,138.6895 C15.381,139.2225 15.6475,139.858 15.6475,140.596 C15.6475,141.334 15.381,141.9695 14.848,142.5025 C14.315,143.0355 13.6795,143.302 12.9415,143.302 C12.2035,143.302 11.568,143.0355 11.035,142.5025 C10.502,141.9695 10.2355,141.334 10.2355,140.596 C10.2355,139.858 10.502,139.2225 11.035,138.6895 C11.568,138.1565 12.2035,137.89 12.9415,137.89 Z M237.852,137.89 C238.59,137.89 239.2255,138.1565 239.7585,138.6895 C240.2915,139.2225 240.558,139.858 240.558,140.596 C240.558,141.334 240.2915,141.9695 239.7585,142.5025 C239.2255,143.0355 238.59,143.302 237.852,143.302 C237.114,143.302 236.4785,143.0355 235.9455,142.5025 C235.4125,141.9695 235.146,141.334 235.146,140.596 C235.146,139.858 235.4125,139.2225 235.9455,138.6895 C236.4785,138.1565 237.114,137.89 237.852,137.89 Z M406.772277,31 C409.359736,31 411.866337,31.2338634 414.292079,31.7015903 C416.717822,32.1693171 418.993399,32.8241347 421.118812,33.666043 C423.244224,34.5079514 425.184818,35.5018709 426.940594,36.6478017 C428.69637,37.7937325 430.244224,39.0449018 431.584158,40.4013096 L426.732673,48.0486436 C426.178218,48.9373246 425.589109,49.5687558 424.965347,49.9429373 C424.341584,50.3171188 423.544554,50.5042095 422.574257,50.5042095 C421.557756,50.5042095 420.541254,50.2820393 419.524752,49.8376988 C418.508251,49.3933583 417.410891,48.9139383 416.232673,48.3994387 C415.054455,47.8849392 413.726073,47.4055192 412.247525,46.9611787 C410.768977,46.5168382 409.082508,46.2946679 407.188119,46.2946679 C404.462046,46.2946679 402.371287,46.8208606 400.915842,47.873246 C399.460396,48.9256314 398.732673,50.3872778 398.732673,52.2581852 C398.732673,53.6145931 399.206271,54.7371375 400.153465,55.6258185 C401.10066,56.5144995 402.359736,57.297942 403.930693,57.9761459 C405.50165,58.6543499 407.280528,59.2974743 409.267327,59.9055192 C411.254125,60.5135641 413.287129,61.191768 415.366337,61.940131 C417.445545,62.6884939 419.478548,63.5654818 421.465347,64.5710945 C423.452145,65.5767072 425.231023,66.8161833 426.80198,68.2895229 C428.372937,69.7628625 429.632013,71.5519177 430.579208,73.6566885 C431.526403,75.7614593 432,78.2871843 432,81.2338634 C432,84.8353601 431.353135,88.1562208 430.059406,91.1964453 C428.765677,94.2366698 426.836634,96.8559401 424.272277,99.0542563 C421.707921,101.252572 418.542904,102.959775 414.777228,104.175865 C411.011551,105.391955 406.679868,106 401.782178,106 C399.333333,106 396.884488,105.766137 394.435644,105.29841 C391.986799,104.830683 389.618812,104.199252 387.331683,103.404116 C385.044554,102.60898 382.930693,101.661833 380.990099,100.562675 C379.049505,99.4635173 377.386139,98.282507 376,97.0196445 L380.990099,89.0215154 C381.590759,88.0860617 382.306931,87.349392 383.138614,86.8115061 C383.970297,86.2736202 385.056106,86.0046773 386.39604,86.0046773 C387.643564,86.0046773 388.764026,86.2853134 389.757426,86.8465856 C390.750825,87.4078578 391.825083,88.0159027 392.980198,88.6707203 C394.135314,89.3255379 395.486799,89.9335828 397.034653,90.494855 C398.582508,91.0561272 400.534653,91.3367633 402.891089,91.3367633 C404.554455,91.3367633 405.963696,91.1613658 407.118812,90.8105706 C408.273927,90.4597755 409.19802,89.9803555 409.891089,89.3723106 C410.584158,88.7642657 411.092409,88.0860617 411.415842,87.3376988 C411.739274,86.5893358 411.90099,85.8175865 411.90099,85.0224509 C411.90099,83.5724977 411.415842,82.3797942 410.445545,81.4443405 C409.475248,80.5088868 408.20462,79.702058 406.633663,79.0238541 C405.062706,78.3456501 403.272277,77.7142189 401.262376,77.1295603 C399.252475,76.5449018 397.207921,75.878391 395.128713,75.1300281 C393.049505,74.3816651 391.00495,73.4812909 388.99505,72.4289055 C386.985149,71.3765201 385.194719,70.0434986 383.623762,68.429841 C382.052805,66.8161833 380.782178,64.8400374 379.811881,62.5014032 C378.841584,60.1627689 378.356436,57.3330215 378.356436,54.0121609 C378.356436,50.9251637 378.945545,47.9901777 380.123762,45.207203 C381.30198,42.4242283 383.069307,39.9803555 385.425743,37.8755847 C387.782178,35.7708138 390.739274,34.0986904 394.29703,32.8592142 C397.854785,31.6197381 402.013201,31 406.772277,31 Z M91.599182,31 C96.3735515,31 100.742331,31.748363 104.705521,33.2450889 C108.668712,34.7418148 112.075665,36.9167446 114.92638,39.7698784 C117.777096,42.6230122 120.002045,46.1192703 121.601227,50.2586529 C123.200409,54.3980355 124,59.0869972 124,64.3255379 C124,65.9625819 123.93047,67.2956034 123.791411,68.3246024 C123.652352,69.3536015 123.39741,70.1721235 123.026585,70.7801684 C122.65576,71.3882133 122.157464,71.8091674 121.531697,72.0430309 C120.90593,72.2768943 120.106339,72.393826 119.132924,72.393826 L77.5541922,72.393826 C78.2494888,78.474275 80.0804363,82.8826006 83.0470348,85.6188026 C86.0136333,88.3550047 89.8377641,89.7231057 94.5194274,89.7231057 C97.0224949,89.7231057 99.1779141,89.4190833 100.985685,88.8110384 C102.793456,88.2029935 104.404226,87.5247895 105.817996,86.7764266 C107.231766,86.0280636 108.529652,85.3498597 109.711656,84.7418148 C110.893661,84.1337699 112.133606,83.8297474 113.431493,83.8297474 C115.146558,83.8297474 116.444444,84.4611787 117.325153,85.7240412 L123.582822,93.5116932 C121.357873,96.0841908 118.9591,98.1772685 116.386503,99.7909261 C113.813906,101.404584 111.171779,102.667446 108.460123,103.579514 C105.748466,104.491581 103.03681,105.123012 100.325153,105.473807 C97.6134969,105.824602 95.0293115,106 92.5725971,106 C87.5201091,106 82.7805044,105.169785 78.3537832,103.509355 C73.927062,101.848924 70.0565781,99.3816651 66.7423313,96.1075772 C63.4280845,92.8334892 60.8091343,88.7642657 58.8854806,83.8999065 C56.9618269,79.0355472 56,73.3760524 56,66.9214219 C56,62.0570627 56.8227676,57.4499532 58.4683027,53.1000935 C60.1138378,48.7502339 62.4778459,44.9382601 65.5603272,41.6641721 C68.6428085,38.3900842 72.3742331,35.7942002 76.7546012,33.8765201 C81.1349693,31.95884 86.0831629,31 91.599182,31 Z M40.0465116,31 C43.3488372,31 46,31.7934406 48,33.3803217 L45.2093023,49.3424787 C45.0232558,50.3226112 44.6511628,51.0110375 44.0930233,51.4077578 C43.5348837,51.8044781 42.7906977,52.0028382 41.8604651,52.0028382 C41.0697674,52.0028382 40.1395349,51.897824 39.0697674,51.6877956 C38,51.4777673 36.6511628,51.3727531 35.0232558,51.3727531 C29.3488372,51.3727531 24.8837209,54.4064964 21.627907,60.473983 L21.627907,105 L0,105 L0,32.4001892 L12.8372093,32.4001892 C13.9069767,32.4001892 14.8023256,32.4935352 15.5232558,32.6802271 C16.244186,32.866919 16.8488372,33.158625 17.3372093,33.5553453 C17.8255814,33.9520656 18.1976744,34.4771365 18.4534884,35.1305582 C18.7093023,35.7839798 18.9302326,36.5774204 19.1162791,37.5108798 L20.3023256,44.3017975 C22.9534884,40.1945758 25.9302326,36.9508042 29.2325581,34.5704825 C32.5348837,32.1901608 36.1395349,31 40.0465116,31 Z M362.575092,32.9007725 L362.575092,105 L341,105 L341,32.9007725 L362.575092,32.9007725 Z M239.550802,32.4906824 L239.550802,105 L218,105 L218,32.4906824 L239.550802,32.4906824 Z M270.055249,32 C271.594843,32 272.889503,32.3587271 273.939227,33.0761813 C274.98895,33.7936355 275.70043,34.6846673 276.073665,35.7492768 L286.151013,68.0347155 C286.944138,70.6730955 287.702271,73.2420444 288.425414,75.7415622 C289.148557,78.24108 289.766728,80.7405979 290.279926,83.2401157 C290.793125,80.7405979 291.422959,78.24108 292.169429,75.7415622 C292.915899,73.2420444 293.709024,70.6730955 294.548803,68.0347155 L305.046041,35.7492768 C305.419276,34.6846673 306.119091,33.7936355 307.145488,33.0761813 C308.171885,32.3587271 309.384899,32 310.78453,32 L328,32 L299.867403,104 L280.132597,104 L252,32 L270.055249,32 Z M147.055249,32 C148.594843,32 149.889503,32.3587271 150.939227,33.0761813 C151.98895,33.7936355 152.70043,34.6846673 153.073665,35.7492768 L163.151013,68.0347155 C163.944138,70.6730955 164.702271,73.2420444 165.425414,75.7415622 C166.148557,78.24108 166.766728,80.7405979 167.279926,83.2401157 C167.793125,80.7405979 168.422959,78.24108 169.169429,75.7415622 C169.915899,73.2420444 170.709024,70.6730955 171.548803,68.0347155 L182.046041,35.7492768 C182.419276,34.6846673 183.119091,33.7936355 184.145488,33.0761813 C185.171885,32.3587271 186.384899,32 187.78453,32 L205,32 L176.867403,104 L157.132597,104 L129,32 L147.055249,32 Z M92.0163599,46.0140318 C87.8909339,46.0140318 84.6693933,47.1950421 82.3517382,49.5570627 C80.0340832,51.9190833 78.5044308,55.3217961 77.7627812,59.7652011 L104.670757,59.7652011 C104.670757,58.0346118 104.450579,56.3507951 104.010225,54.7137512 C103.56987,53.0767072 102.851397,51.6150608 101.854806,50.328812 C100.858214,49.0425631 99.5487389,48.0018709 97.9263804,47.2067353 C96.3040218,46.4115996 94.334015,46.0140318 92.0163599,46.0140318 Z M255.781673,0.0792010759 L239.728053,20.2573369 C238.780007,21.4350264 237.845164,22.2949453 236.923524,22.8370936 C236.001883,23.3792418 234.734453,23.7350939 233.121236,23.9046499 L220.261589,25.2562532 L227.873671,7.23089108 C228.515929,5.80411165 229.329353,4.67572506 230.313942,3.84573129 C231.298532,3.01573752 232.873987,2.48689591 235.040307,2.25920646 C244.599667,2.86323139 247.635967,2.30780361 249.757018,1.58969319 L249.981026,1.51217568 L250.199563,1.4336856 C250.307719,1.39424282 250.414398,1.35453748 250.520462,1.31472285 L250.732026,1.23499324 L250.78484,1.21504722 L251.049649,1.11544828 C252.184679,0.691413141 253.413235,0.284001988 255.781673,0.0792010759 Z M377.787858,0.0766088308 L361.703106,20.1534383 C360.753232,21.325223 359.816799,22.1810013 358.893805,22.7207734 C357.970811,23.2605454 356.701797,23.615305 355.086761,23.7850521 L342.212621,25.1381788 L349.845428,7.20805928 C350.489368,5.78879067 351.304444,4.6661287 352.290655,3.84007337 C353.276866,3.01401803 354.854353,2.48701733 357.023115,2.25907125 C366.483376,2.84623538 369.562072,2.31096911 371.683029,1.60724955 L371.899245,1.53388919 C371.934785,1.52157535 371.970097,1.50922122 372.005207,1.49683167 L372.213675,1.42210864 C372.248091,1.40959703 372.282361,1.39705979 372.316514,1.38450181 L372.520236,1.30894416 L372.732079,1.2295104 C372.908357,1.16327026 373.084522,1.09701049 373.264572,1.03143378 L373.482751,0.953114571 C374.512006,0.589574757 375.713167,0.256270659 377.787858,0.0766088308 Z M442,0 L442,1.47871598 L437.87344,1.47871598 L437.87344,13 L436.144385,13 L436.144385,1.47871598 L432,1.47871598 L432,0 L442,0 Z M446.342723,0 C446.505477,0 446.630673,0.0151197953 446.71831,0.0453593859 C446.805947,0.0755989765 446.890454,0.16026983 446.971831,0.299371947 L451.619718,8.30076762 C451.707355,8.44591766 451.784038,8.59862759 451.849765,8.75889742 C451.915493,8.91916725 451.979656,9.08094906 452.042254,9.24424285 C452.104851,9.07490114 452.170579,8.91311933 452.239437,8.75889742 C452.308294,8.60467551 452.386541,8.44894161 452.474178,8.29169574 L457.028169,0.299371947 C457.109546,0.16026983 457.194053,0.0755989765 457.28169,0.0453593859 C457.369327,0.0151197953 457.494523,0 457.657277,0 L459,0 L459,13 L457.403756,13 L457.403756,3.44731333 C457.403756,3.32030705 457.406886,3.18422889 457.413146,3.03907886 C457.419405,2.89392882 457.428795,2.74575483 457.441315,2.59455687 L452.830986,10.7229588 C452.674491,10.9951151 452.455399,11.1311933 452.173709,11.1311933 L451.910798,11.1311933 C451.629108,11.1311933 451.410016,10.9951151 451.253521,10.7229588 L446.539906,2.56734124 C446.558685,2.72458711 446.57277,2.87880903 446.58216,3.03000698 C446.591549,3.18120493 446.596244,3.32030705 446.596244,3.44731333 L446.596244,13 L445,13 L445,0 L446.342723,0 Z" id="Combined-Shape" fill="#FFFFFF" fill-rule="nonzero"></path>
    </g>
</svg>