<?xml version="1.0" encoding="UTF-8"?>
<svg width="459px" height="182px" viewBox="0 0 459 182" version="1.1" xmlns="http://www.w3.org/2000/svg" xmlns:xlink="http://www.w3.org/1999/xlink">
    <title>Combined Shape</title>
    <g id="Page-1" stroke="none" stroke-width="1" fill="none" fill-rule="evenodd">
        <path d="M101.92562,169 C102.421488,169 102.863636,169.094017 103.252066,169.282051 C103.640496,169.470085 103.96281,169.730769 104.219008,170.064103 C104.475207,170.397436 104.669421,170.782051 104.801653,171.217949 C104.933884,171.653846 105,172.128205 105,172.641026 C105,173.410256 104.892562,174.209402 104.677686,175.038462 C104.46281,175.867521 104.157025,176.688034 103.760331,177.5 C103.363636,178.311966 102.871901,179.102564 102.285124,179.871795 C101.698347,180.641026 101.033058,181.350427 100.289256,182 L99.5454545,181.25641 C99.3305785,181.051282 99.2231405,180.811966 99.2231405,180.538462 C99.2231405,180.316239 99.338843,180.08547 99.5702479,179.846154 C99.7355372,179.65812 99.946281,179.405983 100.202479,179.089744 C100.458678,178.773504 100.719008,178.410256 100.983471,178 C101.247934,177.589744 101.491736,177.136752 101.714876,176.641026 C101.938017,176.145299 102.099174,175.615385 102.198347,175.051282 L101.876033,175.051282 C101.446281,175.051282 101.057851,174.974359 100.710744,174.820513 C100.363636,174.666667 100.061983,174.448718 99.8057851,174.166667 C99.5495868,173.884615 99.3512397,173.551282 99.2107438,173.166667 C99.0702479,172.782051 99,172.358974 99,171.897436 C99,171.504274 99.0702479,171.132479 99.2107438,170.782051 C99.3512397,170.431624 99.5495868,170.123932 99.8057851,169.858974 C100.061983,169.594017 100.371901,169.384615 100.735537,169.230769 C101.099174,169.076923 101.495868,169 101.92562,169 Z M201.302752,138 L201.302752,147.508837 L209.284404,147.508837 L209.284404,151.023564 L201.302752,151.023564 L201.302752,167.589102 C201.302752,168.751595 201.587156,169.614384 202.155963,170.177467 C202.724771,170.74055 203.458716,171.022091 204.357798,171.022091 C204.87156,171.022091 205.316514,170.953976 205.692661,170.817747 C206.068807,170.681517 206.394495,170.531664 206.669725,170.368189 C206.944954,170.204713 207.178899,170.05486 207.37156,169.91863 C207.56422,169.782401 207.733945,169.714286 207.880734,169.714286 C208.137615,169.714286 208.366972,169.868679 208.568807,170.177467 L210,172.493373 C209.155963,173.274423 208.137615,173.887457 206.944954,174.332474 C205.752294,174.777491 204.522936,175 203.256881,175 C201.055046,175 199.362385,174.391507 198.178899,173.174521 C196.995413,171.957536 196.40367,170.204713 196.40367,167.916053 L196.40367,151.023564 L193.045872,151.023564 C192.752294,151.023564 192.504587,150.937285 192.302752,150.764728 C192.100917,150.59217 192,150.324251 192,149.960972 L192,148.02651 L196.568807,147.454345 L197.697248,138.926362 C197.733945,138.653903 197.853211,138.431394 198.055046,138.258837 C198.256881,138.086279 198.513761,138 198.825688,138 L201.302752,138 Z M227.302752,138 L227.302752,147.508837 L235.284404,147.508837 L235.284404,151.023564 L227.302752,151.023564 L227.302752,167.589102 C227.302752,168.751595 227.587156,169.614384 228.155963,170.177467 C228.724771,170.74055 229.458716,171.022091 230.357798,171.022091 C230.87156,171.022091 231.316514,170.953976 231.692661,170.817747 C232.068807,170.681517 232.394495,170.531664 232.669725,170.368189 C232.944954,170.204713 233.178899,170.05486 233.37156,169.91863 C233.56422,169.782401 233.733945,169.714286 233.880734,169.714286 C234.137615,169.714286 234.366972,169.868679 234.568807,170.177467 L236,172.493373 C235.155963,173.274423 234.137615,173.887457 232.944954,174.332474 C231.752294,174.777491 230.522936,175 229.256881,175 C227.055046,175 225.362385,174.391507 224.178899,173.174521 C222.995413,171.957536 222.40367,170.204713 222.40367,167.916053 L222.40367,151.023564 L219.045872,151.023564 C218.752294,151.023564 218.504587,150.937285 218.302752,150.764728 C218.100917,150.59217 218,150.324251 218,149.960972 L218,148.02651 L222.568807,147.454345 L223.697248,138.926362 C223.733945,138.653903 223.853211,138.431394 224.055046,138.258837 C224.256881,138.086279 224.513761,138 224.825688,138 L227.302752,138 Z M39.993921,147 C40.3768997,147 40.6960486,147.09773 40.9513678,147.293189 C41.2066869,147.488648 41.3890578,147.719645 41.4984802,147.98618 L48.5288754,165.364265 C48.7841945,166.003949 48.9848024,166.643633 49.1306991,167.283317 C49.2279635,167.709773 49.3211753,168.13228 49.4103343,168.550839 L49.541,169.174 L49.6899696,168.550839 C49.7912867,168.13228 49.8966565,167.709773 50.006079,167.283317 C50.1702128,166.643633 50.3799392,166.003949 50.6352584,165.364265 L57.7477204,147.98618 C57.8571429,147.701876 58.0349544,147.466436 58.281155,147.279862 C58.5273556,147.093287 58.8328267,147 59.1975684,147 L63,147 L51.7021277,174 L47.2978723,174 L36,147 L39.993921,147 Z M170.712206,146 C172.342665,146 173.847704,146.272931 175.227324,146.818792 C176.606943,147.364653 177.798432,148.152125 178.801792,149.181208 C179.805151,150.210291 180.589026,151.480984 181.153415,152.993289 C181.717805,154.505593 182,156.228188 182,158.161074 C182,158.912752 181.919373,159.41387 181.758119,159.66443 C181.596865,159.914989 181.292273,160.040268 180.844345,160.040268 L162.730123,160.040268 C162.765957,161.758389 162.99888,163.252796 163.428891,164.52349 C163.858903,165.794183 164.450168,166.854586 165.202688,167.704698 C165.955207,168.55481 166.851064,169.190157 167.890258,169.610738 C168.929451,170.03132 170.094065,170.241611 171.384099,170.241611 C172.584546,170.241611 173.619261,170.102908 174.488242,169.825503 C175.357223,169.548098 176.105263,169.248322 176.732363,168.926174 C177.359462,168.604027 177.883539,168.304251 178.304591,168.026846 C178.725644,167.749441 179.088466,167.610738 179.393057,167.610738 C179.787234,167.610738 180.091825,167.762864 180.306831,168.067114 L181.650616,169.812081 C181.059351,170.527964 180.351624,171.149888 179.527436,171.677852 C178.703247,172.205817 177.820829,172.639821 176.880179,172.979866 C175.93953,173.319911 174.967525,173.574944 173.964166,173.744966 C172.960806,173.914989 171.966405,174 170.980963,174 C169.099664,174 167.366181,173.682327 165.780515,173.04698 C164.194849,172.411633 162.824188,171.480984 161.668533,170.255034 C160.512878,169.029083 159.612542,167.512304 158.967525,165.704698 C158.322508,163.897092 158,161.821029 158,159.47651 C158,157.579418 158.291153,155.807606 158.87346,154.161074 C159.455767,152.514541 160.293393,151.087248 161.386338,149.879195 C162.479283,148.671141 163.81411,147.722595 165.390817,147.033557 C166.967525,146.344519 168.741321,146 170.712206,146 Z M128.805369,134 L128.805369,150.301278 C129.932886,148.992154 131.225951,147.938579 132.684564,147.140551 C134.143177,146.342524 135.812081,145.94351 137.691275,145.94351 C139.266219,145.94351 140.689038,146.239408 141.959732,146.831204 C143.230425,147.422999 144.313199,148.306209 145.208054,149.480834 C146.102908,150.655458 146.791946,152.108048 147.275168,153.838601 C147.758389,155.569155 148,157.564223 148,159.823806 C148,161.832325 147.731544,163.701861 147.194631,165.432414 C146.657718,167.162968 145.883669,168.66039 144.872483,169.924681 C143.861298,171.188971 142.626398,172.184264 141.167785,172.910558 C139.709172,173.636853 138.067114,174 136.241611,174 C134.487696,174 132.997763,173.659269 131.771812,172.977808 C130.545861,172.296346 129.47651,171.345887 128.563758,170.126429 L128.322148,172.60121 C128.178971,173.282672 127.767338,173.623403 127.087248,173.623403 L124,173.623403 L124,134 L128.805369,134 Z M258.712206,146 C260.342665,146 261.847704,146.272931 263.227324,146.818792 C264.606943,147.364653 265.798432,148.152125 266.801792,149.181208 C267.805151,150.210291 268.589026,151.480984 269.153415,152.993289 C269.717805,154.505593 270,156.228188 270,158.161074 C270,158.912752 269.919373,159.41387 269.758119,159.66443 C269.596865,159.914989 269.292273,160.040268 268.844345,160.040268 L250.730123,160.040268 C250.765957,161.758389 250.99888,163.252796 251.428891,164.52349 C251.858903,165.794183 252.450168,166.854586 253.202688,167.704698 C253.955207,168.55481 254.851064,169.190157 255.890258,169.610738 C256.929451,170.03132 258.094065,170.241611 259.384099,170.241611 C260.584546,170.241611 261.619261,170.102908 262.488242,169.825503 C263.357223,169.548098 264.105263,169.248322 264.732363,168.926174 C265.359462,168.604027 265.883539,168.304251 266.304591,168.026846 C266.725644,167.749441 267.088466,167.610738 267.393057,167.610738 C267.787234,167.610738 268.091825,167.762864 268.306831,168.067114 L269.650616,169.812081 C269.059351,170.527964 268.351624,171.149888 267.527436,171.677852 C266.703247,172.205817 265.820829,172.639821 264.880179,172.979866 C263.93953,173.319911 262.967525,173.574944 261.964166,173.744966 C260.960806,173.914989 259.966405,174 258.980963,174 C257.099664,174 255.366181,173.682327 253.780515,173.04698 C252.194849,172.411633 250.824188,171.480984 249.668533,170.255034 C248.512878,169.029083 247.612542,167.512304 246.967525,165.704698 C246.322508,163.897092 246,161.821029 246,159.47651 C246,157.579418 246.291153,155.807606 246.87346,154.161074 C247.455767,152.514541 248.293393,151.087248 249.386338,149.879195 C250.479283,148.671141 251.81411,147.722595 253.390817,147.033557 C254.967525,146.344519 256.741321,146 258.712206,146 Z M83.712206,146 C85.3426652,146 86.8477044,146.272931 88.2273236,146.818792 C89.6069429,147.364653 90.7984323,148.152125 91.8017917,149.181208 C92.8051512,150.210291 93.5890258,151.480984 94.1534155,152.993289 C94.7178052,154.505593 95,156.228188 95,158.161074 C95,158.912752 94.9193729,159.41387 94.7581187,159.66443 C94.5968645,159.914989 94.2922732,160.040268 93.8443449,160.040268 L75.7301232,160.040268 C75.7659574,161.758389 75.9988802,163.252796 76.4288914,164.52349 C76.8589026,165.794183 77.450168,166.854586 78.2026876,167.704698 C78.9552072,168.55481 79.8510638,169.190157 80.8902576,169.610738 C81.9294513,170.03132 83.0940649,170.241611 84.3840985,170.241611 C85.5845465,170.241611 86.6192609,170.102908 87.4882419,169.825503 C88.3572228,169.548098 89.1052632,169.248322 89.7323628,168.926174 C90.3594625,168.604027 90.8835386,168.304251 91.3045913,168.026846 C91.7256439,167.749441 92.0884658,167.610738 92.3930571,167.610738 C92.787234,167.610738 93.0918253,167.762864 93.3068309,168.067114 L94.6506159,169.812081 C94.0593505,170.527964 93.3516237,171.149888 92.5274356,171.677852 C91.7032475,172.205817 90.8208287,172.639821 89.8801792,172.979866 C88.9395297,173.319911 87.9675252,173.574944 86.9641657,173.744966 C85.9608063,173.914989 84.9664054,174 83.980963,174 C82.0996641,174 80.3661814,173.682327 78.7805151,173.04698 C77.1948488,172.411633 75.8241881,171.480984 74.668533,170.255034 C73.5128779,169.029083 72.612542,167.512304 71.9675252,165.704698 C71.3225084,163.897092 71,161.821029 71,159.47651 C71,157.579418 71.2911534,155.807606 71.8734602,154.161074 C72.4557671,152.514541 73.2933931,151.087248 74.3863382,149.879195 C75.4792833,148.671141 76.8141097,147.722595 78.3908175,147.033557 C79.9675252,146.344519 81.7413214,146 83.712206,146 Z M295.163961,146 C295.936688,146 296.635823,146.086001 297.261364,146.258002 C297.886905,146.430003 298.46645,146.6699 299,146.977692 L298.36526,150.589719 C298.236472,151.042354 297.951299,151.268671 297.50974,151.268671 C297.252165,151.268671 296.856602,151.182671 296.323052,151.010669 C295.789502,150.838668 295.044372,150.752667 294.087662,150.752667 C292.376623,150.752667 290.946158,151.241513 289.796266,152.219205 C288.646374,153.196896 287.685065,154.61817 286.912338,156.483026 L286.912338,174 L282,174 L282,146.488846 L284.814935,146.488846 C285.348485,146.488846 285.71645,146.588425 285.918831,146.787585 C286.121212,146.986744 286.259199,147.330747 286.332792,147.819593 L286.663961,152.110572 C287.620671,150.1914 288.80276,148.693178 290.210227,147.615907 C291.617695,146.538636 293.268939,146 295.163961,146 Z M5,134 L5,174 L0,174 L0,134 L5,134 Z M24.8976378,146.227553 L24.8976378,174 L19.992126,174 L19.992126,146.227553 L24.8976378,146.227553 Z M136.134228,149.763282 C134.577181,149.763282 133.212528,150.121946 132.040268,150.839274 C130.868009,151.556602 129.789709,152.569827 128.805369,153.878951 L128.805369,167.059852 C129.66443,168.243443 130.61745,169.077337 131.66443,169.561533 C132.711409,170.04573 133.879195,170.287828 135.167785,170.287828 C137.709172,170.287828 139.659955,169.382201 141.020134,167.570948 C142.380313,165.759695 143.060403,163.177315 143.060403,159.823806 C143.060403,158.04842 142.903803,156.524098 142.590604,155.250841 C142.277405,153.977584 141.825503,152.932975 141.234899,152.117014 C140.644295,151.301054 139.919463,150.704775 139.060403,150.328178 C138.201342,149.95158 137.225951,149.763282 136.134228,149.763282 Z M258.819709,149.516779 C256.508399,149.516779 254.68981,150.183445 253.363942,151.516779 C252.038074,152.850112 251.213886,154.697987 250.891377,157.060403 L265.699888,157.060403 C265.699888,155.950783 265.547592,154.935123 265.243001,154.013423 C264.93841,153.091723 264.490482,152.295302 263.899216,151.624161 C263.307951,150.95302 262.586786,150.434004 261.735722,150.067114 C260.884658,149.700224 259.912654,149.516779 258.819709,149.516779 Z M83.8197088,149.516779 C81.5083987,149.516779 79.6898096,150.183445 78.3639418,151.516779 C77.0380739,152.850112 76.2138858,154.697987 75.8913774,157.060403 L90.699888,157.060403 C90.699888,155.950783 90.5475924,154.935123 90.2430011,154.013423 C89.9384099,153.091723 89.4904815,152.295302 88.8992161,151.624161 C88.3079507,150.95302 87.5867861,150.434004 86.7357223,150.067114 C85.8846585,149.700224 84.912654,149.516779 83.8197088,149.516779 Z M170.819709,149.516779 C168.508399,149.516779 166.68981,150.183445 165.363942,151.516779 C164.038074,152.850112 163.213886,154.697987 162.891377,157.060403 L177.699888,157.060403 C177.699888,155.950783 177.547592,154.935123 177.243001,154.013423 C176.93841,153.091723 176.490482,152.295302 175.899216,151.624161 C175.307951,150.95302 174.586786,150.434004 173.735722,150.067114 C172.884658,149.700224 171.912654,149.516779 170.819709,149.516779 Z M22.4724409,134 C22.9501312,134 23.4002625,134.091387 23.8228346,134.27416 C24.2454068,134.456934 24.6174541,134.708248 24.9389764,135.028101 C25.2604987,135.347955 25.5177165,135.722641 25.7106299,136.152159 C25.9035433,136.581677 26,137.034042 26,137.509253 C26,137.984464 25.9035433,138.42769 25.7106299,138.838931 C25.5177165,139.250171 25.2604987,139.615719 24.9389764,139.935572 C24.6174541,140.255426 24.2454068,140.50674 23.8228346,140.689513 C23.4002625,140.872287 22.9501312,140.963674 22.4724409,140.963674 C21.9947507,140.963674 21.5492126,140.872287 21.1358268,140.689513 C20.7224409,140.50674 20.3549869,140.255426 20.0334646,139.935572 C19.7119423,139.615719 19.4593176,139.250171 19.2755906,138.838931 C19.0918635,138.42769 19,137.984464 19,137.509253 C19,137.034042 19.0918635,136.581677 19.2755906,136.152159 C19.4593176,135.722641 19.7119423,135.347955 20.0334646,135.028101 C20.3549869,134.708248 20.7224409,134.456934 21.1358268,134.27416 C21.5492126,134.091387 21.9947507,134 22.4724409,134 Z M406.772277,31 C409.359736,31 411.866337,31.2338634 414.292079,31.7015903 C416.717822,32.1693171 418.993399,32.8241347 421.118812,33.666043 C423.244224,34.5079514 425.184818,35.5018709 426.940594,36.6478017 C428.69637,37.7937325 430.244224,39.0449018 431.584158,40.4013096 L426.732673,48.0486436 C426.178218,48.9373246 425.589109,49.5687558 424.965347,49.9429373 C424.341584,50.3171188 423.544554,50.5042095 422.574257,50.5042095 C421.557756,50.5042095 420.541254,50.2820393 419.524752,49.8376988 C418.508251,49.3933583 417.410891,48.9139383 416.232673,48.3994387 C415.054455,47.8849392 413.726073,47.4055192 412.247525,46.9611787 C410.768977,46.5168382 409.082508,46.2946679 407.188119,46.2946679 C404.462046,46.2946679 402.371287,46.8208606 400.915842,47.873246 C399.460396,48.9256314 398.732673,50.3872778 398.732673,52.2581852 C398.732673,53.6145931 399.206271,54.7371375 400.153465,55.6258185 C401.10066,56.5144995 402.359736,57.297942 403.930693,57.9761459 C405.50165,58.6543499 407.280528,59.2974743 409.267327,59.9055192 C411.254125,60.5135641 413.287129,61.191768 415.366337,61.940131 C417.445545,62.6884939 419.478548,63.5654818 421.465347,64.5710945 C423.452145,65.5767072 425.231023,66.8161833 426.80198,68.2895229 C428.372937,69.7628625 429.632013,71.5519177 430.579208,73.6566885 C431.526403,75.7614593 432,78.2871843 432,81.2338634 C432,84.8353601 431.353135,88.1562208 430.059406,91.1964453 C428.765677,94.2366698 426.836634,96.8559401 424.272277,99.0542563 C421.707921,101.252572 418.542904,102.959775 414.777228,104.175865 C411.011551,105.391955 406.679868,106 401.782178,106 C399.333333,106 396.884488,105.766137 394.435644,105.29841 C391.986799,104.830683 389.618812,104.199252 387.331683,103.404116 C385.044554,102.60898 382.930693,101.661833 380.990099,100.562675 C379.049505,99.4635173 377.386139,98.282507 376,97.0196445 L380.990099,89.0215154 C381.590759,88.0860617 382.306931,87.349392 383.138614,86.8115061 C383.970297,86.2736202 385.056106,86.0046773 386.39604,86.0046773 C387.643564,86.0046773 388.764026,86.2853134 389.757426,86.8465856 C390.750825,87.4078578 391.825083,88.0159027 392.980198,88.6707203 C394.135314,89.3255379 395.486799,89.9335828 397.034653,90.494855 C398.582508,91.0561272 400.534653,91.3367633 402.891089,91.3367633 C404.554455,91.3367633 405.963696,91.1613658 407.118812,90.8105706 C408.273927,90.4597755 409.19802,89.9803555 409.891089,89.3723106 C410.584158,88.7642657 411.092409,88.0860617 411.415842,87.3376988 C411.739274,86.5893358 411.90099,85.8175865 411.90099,85.0224509 C411.90099,83.5724977 411.415842,82.3797942 410.445545,81.4443405 C409.475248,80.5088868 408.20462,79.702058 406.633663,79.0238541 C405.062706,78.3456501 403.272277,77.7142189 401.262376,77.1295603 C399.252475,76.5449018 397.207921,75.878391 395.128713,75.1300281 C393.049505,74.3816651 391.00495,73.4812909 388.99505,72.4289055 C386.985149,71.3765201 385.194719,70.0434986 383.623762,68.429841 C382.052805,66.8161833 380.782178,64.8400374 379.811881,62.5014032 C378.841584,60.1627689 378.356436,57.3330215 378.356436,54.0121609 C378.356436,50.9251637 378.945545,47.9901777 380.123762,45.207203 C381.30198,42.4242283 383.069307,39.9803555 385.425743,37.8755847 C387.782178,35.7708138 390.739274,34.0986904 394.29703,32.8592142 C397.854785,31.6197381 402.013201,31 406.772277,31 Z M91.599182,31 C96.3735515,31 100.742331,31.748363 104.705521,33.2450889 C108.668712,34.7418148 112.075665,36.9167446 114.92638,39.7698784 C117.777096,42.6230122 120.002045,46.1192703 121.601227,50.2586529 C123.200409,54.3980355 124,59.0869972 124,64.3255379 C124,65.9625819 123.93047,67.2956034 123.791411,68.3246024 C123.652352,69.3536015 123.39741,70.1721235 123.026585,70.7801684 C122.65576,71.3882133 122.157464,71.8091674 121.531697,72.0430309 C120.90593,72.2768943 120.106339,72.393826 119.132924,72.393826 L77.5541922,72.393826 C78.2494888,78.474275 80.0804363,82.8826006 83.0470348,85.6188026 C86.0136333,88.3550047 89.8377641,89.7231057 94.5194274,89.7231057 C97.0224949,89.7231057 99.1779141,89.4190833 100.985685,88.8110384 C102.793456,88.2029935 104.404226,87.5247895 105.817996,86.7764266 C107.231766,86.0280636 108.529652,85.3498597 109.711656,84.7418148 C110.893661,84.1337699 112.133606,83.8297474 113.431493,83.8297474 C115.146558,83.8297474 116.444444,84.4611787 117.325153,85.7240412 L123.582822,93.5116932 C121.357873,96.0841908 118.9591,98.1772685 116.386503,99.7909261 C113.813906,101.404584 111.171779,102.667446 108.460123,103.579514 C105.748466,104.491581 103.03681,105.123012 100.325153,105.473807 C97.6134969,105.824602 95.0293115,106 92.5725971,106 C87.5201091,106 82.7805044,105.169785 78.3537832,103.509355 C73.927062,101.848924 70.0565781,99.3816651 66.7423313,96.1075772 C63.4280845,92.8334892 60.8091343,88.7642657 58.8854806,83.8999065 C56.9618269,79.0355472 56,73.3760524 56,66.9214219 C56,62.0570627 56.8227676,57.4499532 58.4683027,53.1000935 C60.1138378,48.7502339 62.4778459,44.9382601 65.5603272,41.6641721 C68.6428085,38.3900842 72.3742331,35.7942002 76.7546012,33.8765201 C81.1349693,31.95884 86.0831629,31 91.599182,31 Z M40.0465116,31 C43.3488372,31 46,31.7934406 48,33.3803217 L45.2093023,49.3424787 C45.0232558,50.3226112 44.6511628,51.0110375 44.0930233,51.4077578 C43.5348837,51.8044781 42.7906977,52.0028382 41.8604651,52.0028382 C41.0697674,52.0028382 40.1395349,51.897824 39.0697674,51.6877956 C38,51.4777673 36.6511628,51.3727531 35.0232558,51.3727531 C29.3488372,51.3727531 24.8837209,54.4064964 21.627907,60.473983 L21.627907,105 L0,105 L0,32.4001892 L12.8372093,32.4001892 C13.9069767,32.4001892 14.8023256,32.4935352 15.5232558,32.6802271 C16.244186,32.866919 16.8488372,33.158625 17.3372093,33.5553453 C17.8255814,33.9520656 18.1976744,34.4771365 18.4534884,35.1305582 C18.7093023,35.7839798 18.9302326,36.5774204 19.1162791,37.5108798 L20.3023256,44.3017975 C22.9534884,40.1945758 25.9302326,36.9508042 29.2325581,34.5704825 C32.5348837,32.1901608 36.1395349,31 40.0465116,31 Z M362.575092,32.9007725 L362.575092,105 L341,105 L341,32.9007725 L362.575092,32.9007725 Z M239.550802,32.4906824 L239.550802,105 L218,105 L218,32.4906824 L239.550802,32.4906824 Z M270.055249,32 C271.594843,32 272.889503,32.3587271 273.939227,33.0761813 C274.98895,33.7936355 275.70043,34.6846673 276.073665,35.7492768 L286.151013,68.0347155 C286.944138,70.6730955 287.702271,73.2420444 288.425414,75.7415622 C289.148557,78.24108 289.766728,80.7405979 290.279926,83.2401157 C290.793125,80.7405979 291.422959,78.24108 292.169429,75.7415622 C292.915899,73.2420444 293.709024,70.6730955 294.548803,68.0347155 L305.046041,35.7492768 C305.419276,34.6846673 306.119091,33.7936355 307.145488,33.0761813 C308.171885,32.3587271 309.384899,32 310.78453,32 L328,32 L299.867403,104 L280.132597,104 L252,32 L270.055249,32 Z M147.055249,32 C148.594843,32 149.889503,32.3587271 150.939227,33.0761813 C151.98895,33.7936355 152.70043,34.6846673 153.073665,35.7492768 L163.151013,68.0347155 C163.944138,70.6730955 164.702271,73.2420444 165.425414,75.7415622 C166.148557,78.24108 166.766728,80.7405979 167.279926,83.2401157 C167.793125,80.7405979 168.422959,78.24108 169.169429,75.7415622 C169.915899,73.2420444 170.709024,70.6730955 171.548803,68.0347155 L182.046041,35.7492768 C182.419276,34.6846673 183.119091,33.7936355 184.145488,33.0761813 C185.171885,32.3587271 186.384899,32 187.78453,32 L205,32 L176.867403,104 L157.132597,104 L129,32 L147.055249,32 Z M92.0163599,46.0140318 C87.8909339,46.0140318 84.6693933,47.1950421 82.3517382,49.5570627 C80.0340832,51.9190833 78.5044308,55.3217961 77.7627812,59.7652011 L104.670757,59.7652011 C104.670757,58.0346118 104.450579,56.3507951 104.010225,54.7137512 C103.56987,53.0767072 102.851397,51.6150608 101.854806,50.328812 C100.858214,49.0425631 99.5487389,48.0018709 97.9263804,47.2067353 C96.3040218,46.4115996 94.334015,46.0140318 92.0163599,46.0140318 Z M255.781673,0.0792010759 L239.728053,20.2573369 C238.780007,21.4350264 237.845164,22.2949453 236.923524,22.8370936 C236.001883,23.3792418 234.734453,23.7350939 233.121236,23.9046499 L220.261589,25.2562532 L227.873671,7.23089108 C228.515929,5.80411165 229.329353,4.67572506 230.313942,3.84573129 C231.298532,3.01573752 232.873987,2.48689591 235.040307,2.25920646 C244.599667,2.86323139 247.635967,2.30780361 249.757018,1.58969319 L249.981026,1.51217568 L250.199563,1.4336856 C250.307719,1.39424282 250.414398,1.35453748 250.520462,1.31472285 L250.732026,1.23499324 L250.78484,1.21504722 L251.049649,1.11544828 C252.184679,0.691413141 253.413235,0.284001988 255.781673,0.0792010759 Z M377.787858,0.0766088308 L361.703106,20.1534383 C360.753232,21.325223 359.816799,22.1810013 358.893805,22.7207734 C357.970811,23.2605454 356.701797,23.615305 355.086761,23.7850521 L342.212621,25.1381788 L349.845428,7.20805928 C350.489368,5.78879067 351.304444,4.6661287 352.290655,3.84007337 C353.276866,3.01401803 354.854353,2.48701733 357.023115,2.25907125 C366.483376,2.84623538 369.562072,2.31096911 371.683029,1.60724955 L371.899245,1.53388919 C371.934785,1.52157535 371.970097,1.50922122 372.005207,1.49683167 L372.213675,1.42210864 C372.248091,1.40959703 372.282361,1.39705979 372.316514,1.38450181 L372.520236,1.30894416 L372.732079,1.2295104 C372.908357,1.16327026 373.084522,1.09701049 373.264572,1.03143378 L373.482751,0.953114571 C374.512006,0.589574757 375.713167,0.256270659 377.787858,0.0766088308 Z M442,0 L442,1.47871598 L437.87344,1.47871598 L437.87344,13 L436.144385,13 L436.144385,1.47871598 L432,1.47871598 L432,0 L442,0 Z M446.342723,0 C446.505477,0 446.630673,0.0151197953 446.71831,0.0453593859 C446.805947,0.0755989765 446.890454,0.16026983 446.971831,0.299371947 L451.619718,8.30076762 C451.707355,8.44591766 451.784038,8.59862759 451.849765,8.75889742 C451.915493,8.91916725 451.979656,9.08094906 452.042254,9.24424285 C452.104851,9.07490114 452.170579,8.91311933 452.239437,8.75889742 C452.308294,8.60467551 452.386541,8.44894161 452.474178,8.29169574 L457.028169,0.299371947 C457.109546,0.16026983 457.194053,0.0755989765 457.28169,0.0453593859 C457.369327,0.0151197953 457.494523,0 457.657277,0 L459,0 L459,13 L457.403756,13 L457.403756,3.44731333 C457.403756,3.32030705 457.406886,3.18422889 457.413146,3.03907886 C457.419405,2.89392882 457.428795,2.74575483 457.441315,2.59455687 L452.830986,10.7229588 C452.674491,10.9951151 452.455399,11.1311933 452.173709,11.1311933 L451.910798,11.1311933 C451.629108,11.1311933 451.410016,10.9951151 451.253521,10.7229588 L446.539906,2.56734124 C446.558685,2.72458711 446.57277,2.87880903 446.58216,3.03000698 C446.591549,3.18120493 446.596244,3.32030705 446.596244,3.44731333 L446.596244,13 L445,13 L445,0 L446.342723,0 Z" id="Combined-Shape" fill="#FFFFFF" fill-rule="nonzero"></path>
    </g>
</svg>